<?xml version="1.0" ?><svg viewBox="0 0 256 256" xmlns="http://www.w3.org/2000/svg"><rect fill="none" height="256" width="256"/><circle cx="128" cy="128" fill="none" r="96" stroke="#15803c" stroke-linecap="round" stroke-linejoin="round" stroke-width="16"/><polygon fill="none" points="128 86 88.1 115 103.3 162 152.7 162 167.9 115 128 86" stroke="#15803c" stroke-linecap="round" stroke-linejoin="round" stroke-width="16"/><line fill="none" stroke="#15803c" stroke-linecap="round" stroke-linejoin="round" stroke-width="16" x1="128" x2="128" y1="64" y2="86"/><polyline fill="none" points="163 38.6 128 64 93 38.6" stroke="#15803c" stroke-linecap="round" stroke-linejoin="round" stroke-width="16"/><line fill="none" stroke="#15803c" stroke-linecap="round" stroke-linejoin="round" stroke-width="16" x1="67.1" x2="88.1" y1="108.2" y2="115"/><polyline fill="none" points="53.8 67.1 67.1 108.2 32.1 133.7" stroke="#15803c" stroke-linecap="round" stroke-linejoin="round" stroke-width="16"/><line fill="none" stroke="#15803c" stroke-linecap="round" stroke-linejoin="round" stroke-width="16" x1="90.4" x2="103.3" y1="179.8" y2="162"/><polyline fill="none" points="47.1 179.8 90.4 179.8 103.8 220.9" stroke="#15803c" stroke-linecap="round" stroke-linejoin="round" stroke-width="16"/><line fill="none" stroke="#15803c" stroke-linecap="round" stroke-linejoin="round" stroke-width="16" x1="165.6" x2="152.7" y1="179.8" y2="162"/><polyline fill="none" points="152.2 220.9 165.6 179.8 208.9 179.8" stroke="#15803c" stroke-linecap="round" stroke-linejoin="round" stroke-width="16"/><line fill="none" stroke="#15803c" stroke-linecap="round" stroke-linejoin="round" stroke-width="16" x1="188.9" x2="167.9" y1="108.2" y2="115"/><polyline fill="none" points="223.9 133.7 188.9 108.2 202.2 67.1" stroke="#15803c" stroke-linecap="round" stroke-linejoin="round" stroke-width="16"/></svg>