<svg xmlns="http://www.w3.org/2000/svg" viewBox="0 0 72 90" x="0px" y="0px"><title>finish line</title><g data-name="Layer 25"><path d="M57,54H8a3,3,0,0,1-3-3V18H42a1,1,0,0,0,0-2H5V13a3,3,0,0,1,3-3H60a3,3,0,0,1,3,3v3H60a1,1,0,1,0,0,2h3V28a1,1,0,0,0,2,0V13a5,5,0,0,0-5-5H8a5,5,0,0,0-5,5V51a5,5,0,0,0,5,5H57a1,1,0,0,0,0-2Z"/><circle cx="9.01" cy="13" r="1"/><circle cx="14.01" cy="13" r="1"/><circle cx="19.01" cy="13" r="1"/><path d="M57,17a1,1,0,0,0-1-1H46a1,1,0,0,0,0,2H56A1,1,0,0,0,57,17Z"/><path d="M19.8,31.71a1,1,0,0,0,.71.29,1,1,0,0,0,.7-.29l2.3-2.3,2.29,2.3a1,1,0,0,0,.71.29,1,1,0,0,0,.7-1.71L24.92,28l2.29-2.29a1,1,0,0,0,0-1.42,1,1,0,0,0-1.41,0l-2.29,2.3-2.3-2.3a1,1,0,0,0-1.41,0,1,1,0,0,0,0,1.42L22.09,28,19.8,30.29A1,1,0,0,0,19.8,31.71Z"/><path d="M40.8,31.71a1,1,0,0,0,.71.29,1,1,0,0,0,.7-.29l2.3-2.3,2.29,2.3a1,1,0,0,0,.71.29,1,1,0,0,0,.7-1.71L45.92,28l2.29-2.29a1,1,0,0,0,0-1.42,1,1,0,0,0-1.41,0l-2.29,2.3-2.3-2.3a1,1,0,0,0-1.41,0,1,1,0,0,0,0,1.42L43.09,28,40.8,30.29A1,1,0,0,0,40.8,31.71Z"/><path d="M15.18,46.55a1,1,0,0,0,1.38.28,31.38,31.38,0,0,1,34.89,0A1,1,0,0,0,52,47a1,1,0,0,0,.55-1.83,33.34,33.34,0,0,0-37.11,0A1,1,0,0,0,15.18,46.55Z"/><path d="M66.91,32.88a5,5,0,0,0-8.77,4.22L62,54.22A1,1,0,0,0,63,55a1,1,0,0,0,1-.78L67.87,37.1A5,5,0,0,0,66.91,32.88Zm-1,3.77L63,49.49,60.09,36.65a3,3,0,0,1,5.26-2.52A2.93,2.93,0,0,1,65.92,36.65Z"/><path d="M63,56a4,4,0,1,0,4,4A4,4,0,0,0,63,56Zm0,6a2,2,0,1,1,2-2A2,2,0,0,1,63,62Z"/></g><text x="0" y="87" fill="#000000" font-size="5px" font-weight="bold" font-family="'Helvetica Neue', Helvetica, Arial-Unicode, Arial, Sans-serif">Created by I Putu Dicky Adi Pranatha</text><text x="0" y="92" fill="#000000" font-size="5px" font-weight="bold" font-family="'Helvetica Neue', Helvetica, Arial-Unicode, Arial, Sans-serif">from the Noun Project</text></svg>